<svg id="visual" viewBox="0 0 900 300" width="900" height="300" xmlns="http://www.w3.org/2000/svg" xmlns:xlink="http://www.w3.org/1999/xlink" version="1.1"><rect x="0" y="0" width="900" height="300" fill="#4338ca"></rect><path d="M0 78L9.3 84C18.7 90 37.3 102 56.2 103.7C75 105.3 94 96.7 112.8 94.5C131.7 92.3 150.3 96.7 169 100.7C187.7 104.7 206.3 108.3 225 108.5C243.7 108.7 262.3 105.3 281.2 104.3C300 103.3 319 104.7 337.8 101.5C356.7 98.3 375.3 90.7 394 89C412.7 87.3 431.3 91.7 450 95.3C468.7 99 487.3 102 506.2 99C525 96 544 87 562.8 83.8C581.7 80.7 600.3 83.3 619 83.3C637.7 83.3 656.3 80.7 675 81.3C693.7 82 712.3 86 731.2 87C750 88 769 86 787.8 91.2C806.7 96.3 825.3 108.7 844 109.3C862.7 110 881.3 99 890.7 93.5L900 88L900 0L890.7 0C881.3 0 862.7 0 844 0C825.3 0 806.7 0 787.8 0C769 0 750 0 731.2 0C712.3 0 693.7 0 675 0C656.3 0 637.7 0 619 0C600.3 0 581.7 0 562.8 0C544 0 525 0 506.2 0C487.3 0 468.7 0 450 0C431.3 0 412.7 0 394 0C375.3 0 356.7 0 337.8 0C319 0 300 0 281.2 0C262.3 0 243.7 0 225 0C206.3 0 187.7 0 169 0C150.3 0 131.7 0 112.8 0C94 0 75 0 56.2 0C37.3 0 18.7 0 9.3 0L0 0Z" fill="#4338ca"></path><path d="M0 60L9.3 61.3C18.7 62.7 37.3 65.3 56.2 72.3C75 79.3 94 90.7 112.8 95.8C131.7 101 150.3 100 169 95C187.7 90 206.3 81 225 79C243.7 77 262.3 82 281.2 86.5C300 91 319 95 337.8 92C356.7 89 375.3 79 394 73.5C412.7 68 431.3 67 450 69.3C468.7 71.7 487.3 77.3 506.2 77C525 76.7 544 70.3 562.8 68.5C581.7 66.7 600.3 69.3 619 75.2C637.7 81 656.3 90 675 93.7C693.7 97.3 712.3 95.7 731.2 95C750 94.3 769 94.7 787.8 94.5C806.7 94.3 825.3 93.7 844 88.3C862.7 83 881.3 73 890.7 68L900 63L900 0L890.7 0C881.3 0 862.7 0 844 0C825.3 0 806.7 0 787.8 0C769 0 750 0 731.2 0C712.3 0 693.7 0 675 0C656.3 0 637.7 0 619 0C600.3 0 581.7 0 562.8 0C544 0 525 0 506.2 0C487.3 0 468.7 0 450 0C431.3 0 412.7 0 394 0C375.3 0 356.7 0 337.8 0C319 0 300 0 281.2 0C262.3 0 243.7 0 225 0C206.3 0 187.7 0 169 0C150.3 0 131.7 0 112.8 0C94 0 75 0 56.2 0C37.3 0 18.7 0 9.3 0L0 0Z" fill="#5859da"></path><path d="M0 71L9.3 68.7C18.7 66.3 37.3 61.7 56.2 60.3C75 59 94 61 112.8 63.3C131.7 65.7 150.3 68.3 169 66.8C187.7 65.3 206.3 59.7 225 60.3C243.7 61 262.3 68 281.2 70.2C300 72.3 319 69.7 337.8 66C356.7 62.3 375.3 57.7 394 56.2C412.7 54.7 431.3 56.3 450 57.2C468.7 58 487.3 58 506.2 60.2C525 62.3 544 66.7 562.8 68.2C581.7 69.7 600.3 68.3 619 67.7C637.7 67 656.3 67 675 66.7C693.7 66.3 712.3 65.7 731.2 63.2C750 60.7 769 56.3 787.8 55C806.7 53.7 825.3 55.3 844 58.8C862.7 62.3 881.3 67.7 890.7 70.3L900 73L900 0L890.7 0C881.3 0 862.7 0 844 0C825.3 0 806.7 0 787.8 0C769 0 750 0 731.2 0C712.3 0 693.7 0 675 0C656.3 0 637.7 0 619 0C600.3 0 581.7 0 562.8 0C544 0 525 0 506.2 0C487.3 0 468.7 0 450 0C431.3 0 412.7 0 394 0C375.3 0 356.7 0 337.8 0C319 0 300 0 281.2 0C262.3 0 243.7 0 225 0C206.3 0 187.7 0 169 0C150.3 0 131.7 0 112.8 0C94 0 75 0 56.2 0C37.3 0 18.7 0 9.3 0L0 0Z" fill="#6f78e7"></path><path d="M0 53L9.3 53.5C18.7 54 37.3 55 56.2 55C75 55 94 54 112.8 49.7C131.7 45.3 150.3 37.7 169 36.7C187.7 35.7 206.3 41.3 225 45.8C243.7 50.3 262.3 53.7 281.2 52.5C300 51.3 319 45.7 337.8 41.7C356.7 37.7 375.3 35.3 394 34.5C412.7 33.7 431.3 34.3 450 38C468.7 41.7 487.3 48.3 506.2 49.3C525 50.3 544 45.7 562.8 44.2C581.7 42.7 600.3 44.3 619 44.2C637.7 44 656.3 42 675 42.5C693.7 43 712.3 46 731.2 46.2C750 46.3 769 43.7 787.8 43.5C806.7 43.3 825.3 45.7 844 45C862.7 44.3 881.3 40.7 890.7 38.8L900 37L900 0L890.7 0C881.3 0 862.7 0 844 0C825.3 0 806.7 0 787.8 0C769 0 750 0 731.2 0C712.3 0 693.7 0 675 0C656.3 0 637.7 0 619 0C600.3 0 581.7 0 562.8 0C544 0 525 0 506.2 0C487.3 0 468.7 0 450 0C431.3 0 412.7 0 394 0C375.3 0 356.7 0 337.8 0C319 0 300 0 281.2 0C262.3 0 243.7 0 225 0C206.3 0 187.7 0 169 0C150.3 0 131.7 0 112.8 0C94 0 75 0 56.2 0C37.3 0 18.7 0 9.3 0L0 0Z" fill="#8996f2"></path><path d="M0 25L9.3 26.5C18.7 28 37.3 31 56.2 30.2C75 29.3 94 24.7 112.8 22C131.7 19.3 150.3 18.7 169 21.2C187.7 23.7 206.3 29.3 225 30.5C243.7 31.7 262.3 28.3 281.2 25.7C300 23 319 21 337.8 22.2C356.7 23.3 375.3 27.7 394 29C412.7 30.3 431.3 28.7 450 25.7C468.7 22.7 487.3 18.3 506.2 16.5C525 14.7 544 15.3 562.8 19C581.7 22.7 600.3 29.3 619 31.8C637.7 34.3 656.3 32.7 675 30.8C693.7 29 712.3 27 731.2 24.2C750 21.3 769 17.7 787.8 18.5C806.7 19.3 825.3 24.7 844 24.5C862.7 24.3 881.3 18.7 890.7 15.8L900 13L900 0L890.7 0C881.3 0 862.7 0 844 0C825.3 0 806.7 0 787.8 0C769 0 750 0 731.2 0C712.3 0 693.7 0 675 0C656.3 0 637.7 0 619 0C600.3 0 581.7 0 562.8 0C544 0 525 0 506.2 0C487.3 0 468.7 0 450 0C431.3 0 412.7 0 394 0C375.3 0 356.7 0 337.8 0C319 0 300 0 281.2 0C262.3 0 243.7 0 225 0C206.3 0 187.7 0 169 0C150.3 0 131.7 0 112.8 0C94 0 75 0 56.2 0C37.3 0 18.7 0 9.3 0L0 0Z" fill="#a5b4fc"></path></svg>